# xmcd
# Track frame offsets:
# 150
# 12250
# 26545
# 39537
# 53087
# 67035
# 81077
# 94257
# 107307
# 120002
# 134105
# 146090
# 159457
# 173370
# 186032
# 198392
# 211087
# 224305
# 238550
# 251877
# 266762
# 281692
# 294327
# 309055
# 324020
#
# Disc length: 4489 seconds
# Revision: 0
# Processed by: cddbd v1.4PL0 Copyright (c) Steve Scherf et al.
# Submitted via: bergue.cddb.CddbMailer 1
#
DISCID=58118719
DTITLE=The Carter Family - In The Shadow Of Clinch Mountain, Vol. 3
DYEAR=1900
DGENRE=
TTITLE0=Lonesome Valley
TTITLE1=On The Rock Where Moses Stood
TTITLE2=Room In Heaven For Me
TTITLE3=Lonesome Pine Special
TTITLE4=No More The Moon Shines On Lorena
TTITLE5=On My Way To Canaan's Land
TTITLE6=Where Shall I Be
TTITLE7=Sow 'Em On The Mountain
TTITLE8=Darling Nellie Across The Sea
TTITLE9=The Birds Were Singing Of You
TTITLE10=Weary Prodigal Son
TTITLE11=My Old Cottage Home
TTITLE12=When I'm Gone
TTITLE13=Sunshine In The Shadows
TTITLE14=Let The Church Roll On
TTITLE15=Lonesome For You
TTITLE16=Can't Feel At Home
TTITLE17=Why There's A Tear In My Eye
TTITLE18=The Wonderful City
TTITLE19=Jimmie Rodgers Visits The Carter Family
TTITLE20=The Carter Family And Jimmie Rodgers In Texas
TTITLE21=Mid The Green Fields Of Virginia
TTITLE22=Happiest Days Of All
TTITLE23=Picture On The Wall
TTITLE24=Amber Tresses
EXTD=Bear Family CD 15865 LK
EXTT0=24-NOV-1930, Memphis
EXTT1=24-NOV-1930, Memphis
EXTT2=24-NOV-1930, Memphis
EXTT3=25-NOV-1930, Memphis
EXTT4=25-NOV-1930, Memphis
EXTT5=25-NOV-1930, Memphis
EXTT6=25-NOV-1930, Memphis
EXTT7=25-NOV-1930, Memphis
EXTT8=25-NOV-1930, Memphis
EXTT9=25-NOV-1930, Memphis
EXTT10=25-MAY-1931, Charlotte
EXTT11=25-MAY-1931, Charlotte
EXTT12=25-MAY-1931, Charlotte
EXTT13=25-MAY-1931, Charlotte
EXTT14=25-MAY-1931, Charlotte
EXTT15=26-MAY-1931, Charlotte
EXTT16=26-MAY-1931, Charlotte
EXTT17=10-JUN-1931, Louisville, (& Jimmie Rodgers)
EXTT18=10-JUN-1931, Louisville, (& Jimmie Rodgers)
EXTT19=12-JUN-1931, Louisville, (& Jimmie Rodgers)
EXTT20=12-JUN-1931, Louisville, (& Jimmie Rodgers)
EXTT21=23-FEB-1932, Atlanta
EXTT22=23-FEB-1932, Atlanta
EXTT23=23-FEB-1932, Atlanta
EXTT24=23-FEB-1932, Atlanta
PLAYORDER=
